<?xml version="1.0" standalone="yes"?>
<svg width="191" height="189">
<path style="fill:#ffffff; stroke:none;" d="M0 0L0 83L1 83C1.82032 43.4675 43.9528 2.70245 83 1L57 0L0 0z"/>
<path style="fill:#99cccc; stroke:none;" d="M83 0L83 1L108 1L83 0z"/>
<path style="fill:#669999; stroke:none;" d="M89 0L89 1L102 1L89 0z"/>
<path style="fill:#ffffff; stroke:none;" d="M108 0L108 1C147.047 2.70244 189.18 43.4675 190 83L191 83L191 0L108 0z"/>
<path style="fill:#669999; stroke:none;" d="M1 87L2 87C5.54007 42.1426 43.4662 5.51453 88 2C77.7768 -2.28981 62.1162 5.19499 53 9.75308C24.1383 24.1839 1 53.789 1 87M104 1L104 2C148.143 7.60817 185.41 41.5098 189 87C192.906 77.6905 186.574 64.6141 182.988 56C170.399 25.752 137.228 1.00363 104 1z"/>
<path style="fill:#ffffff; stroke:none;" d="M24 154C26.6149 147.687 21.5898 143.273 18.4529 138C13.7807 130.146 10.9636 121.752 8.55556 113C1.90582 88.8316 9.56133 61.5716 24.5031 42C32.8019 31.1297 43.7384 21.9434 56 15.8086C113.205 -12.8124 183.292 30.0448 184.871 94C185.393 115.123 175.607 136.216 162.246 151.996C154.483 161.165 143.984 169.201 133 174.135C111.873 183.626 86.7823 185.95 65 177.136C55.0021 173.09 38.9903 157.168 29 159C32.8873 166.677 42.669 172.057 50 176.138C74.901 189.999 106.754 190.683 133 179.985C187.691 157.693 206.334 85.613 171.102 39C137.499 -5.45715 67.5778 -11.5361 28.1698 29.0895C-0.654484 58.8043 -12.6778 124.139 24 154z"/>
<path style="fill:#99cccc; stroke:none;" d="M89 6L89 7L102 7L89 6z"/>
<path style="fill:#669999; stroke:none;" d="M25 149L27 149L29 146C18.3559 131.433 9.67165 112.517 10.1289 94C11.9374 20.754 104.551 -16.7518 155.91 36.0394C207.372 88.9351 168.681 174.851 97 178.907C74.736 180.166 53.6565 168.426 37 155L36 155L32 157C42.8323 166.763 55.7706 175.311 70 179.115C134.233 196.288 201.255 138.181 181.561 71C177.482 57.0868 170.229 44.8168 160.572 34.0394C121.133 -9.97566 45.1273 1.35172 17.3117 52C-0.0737438 83.6566 5.4386 120.004 25 149z"/>
<path style="fill:#99cccc; stroke:none;" d="M90 10L90 11L101 11L90 10z"/>
<path style="fill:#cccccc; stroke:none;" d="M81 11L81 12L85 12L81 11z"/>
<path style="fill:#ffffff; stroke:none;" d="M27 145L29 145L37 128C35.7108 128.772 30.5111 132.544 30.3025 128.793C29.9274 122.052 39.2058 115.671 40.5424 109C42.062 101.416 39.0719 92.8742 40.4637 85C44.1527 64.1303 61.5513 46.1052 82 40.8958C121.808 30.7545 151.543 64.8985 151.133 102C151.064 108.211 161.989 120.148 155.667 125.381C149.268 130.678 138.781 114.704 135 111.015C128.255 104.432 121.668 98.1043 115.424 91.0039C113.077 88.3345 110.03 84.2702 106 84.5463C97.9547 85.0975 92.7598 98.2186 89 104C99.8097 104.464 112.593 105.441 123 108.429C130.052 110.454 134.448 115.178 126 119L127 123C113.986 125.425 100.211 126.382 87 126.961C80.3025 127.254 71.3429 125.261 65 127.603C55.833 130.989 42.5922 148.061 37 156C64.0497 176.048 94.2644 184.391 127 172.456C182.999 152.04 195.579 79.4702 157.711 37.0147C118.589 -6.84538 42.684 7.14914 18.3889 59C4.49056 88.662 11.9489 117.863 27 145z"/>
<path style="fill:#cccccc; stroke:none;" d="M87 17L87 25L88 25L87 17z"/>
<path style="fill:#669999; stroke:none;" d="M88 17C88 21.0913 86.6615 28.1435 89.0278 31.6821C91.1795 34.8998 96.7235 34.2471 98.2431 30.7716C99.8587 27.0763 98.0111 21.0188 98 17L95 17L94 31L92 31L91 17L88 17z"/>
<path style="fill:#99cccc; stroke:none;" d="M98 17L98 26L99 26L98 17z"/>
<path style="fill:#669999; stroke:none;" d="M104 35L108 35L109 27L110 27C110.345 31.3344 110.468 35.5006 115 37C115.965 31.8796 120.045 22.3089 115 19L114 28C112.863 25.8729 112.451 20.4235 110.454 19.1759C106.206 16.5211 104.196 32.6039 104 35M71.3179 21.0324C65.1633 24.9871 71.1966 40.2305 78.8526 35.9568C86.2154 31.8468 78.7498 16.2569 71.3179 21.0324z"/>
<path style="fill:#cccccc; stroke:none;" d="M91 22L91 30L92 30L91 22z"/>
<path style="fill:#ffffff; stroke:none;" d="M73 23L72 24C72.8704 28.4044 73.3966 31.6035 78 33C77.888 28.3658 77.2912 25.252 73 23z"/>
<path style="fill:#99cccc; stroke:none;" d="M112 24L113 28L114 28L112 24z"/>
<path style="fill:#669999; stroke:none;" d="M127 24L120 39C133.118 45.3116 141.193 26.8739 127 24M61 44L63 44L61 36L65 34L65 33L59 33L58 29L60 25C49.8937 29.5018 56.8411 36.9479 61 44z"/>
<path style="fill:#ffffff; stroke:none;" d="M129 28L124 38C129.593 37.1157 131.475 33.4296 131 28L129 28z"/>
<path style="fill:#669999; stroke:none;" d="M132 45L132 46L134 48L135 48L138 46L138 52L139 53L141 53C142.626 50.2144 150.322 39.567 147.289 36.7477C144.137 33.8185 134.517 43.0601 132 45z"/>
<path style="fill:#99cccc; stroke:none;" d="M88 39L88 40L103 40L88 39M79 41L79 42L87 42L79 41z"/>
<path style="fill:#669999; stroke:none;" d="M85 40L85 41L92 41L85 40M99 40L99 41L106 41L99 40z"/>
<path style="fill:#66cccc; stroke:none;" d="M104 41L104 42L114 44C111.503 40.8691 107.82 40.4712 104 41z"/>
<path style="fill:#ffffff; stroke:none;" d="M42 106C47.7584 102.849 51.3415 95.3186 55.0247 90C69.648 68.8838 92.7941 29.895 119.961 58.0039C124.916 63.1316 129.041 69.0883 132.999 75C138.43 83.1104 143.086 91.5887 148 100C150.93 95.7104 149.507 90.886 148.95 86C147.055 69.3692 135.876 54.3137 121 46.8094C93.8707 33.1243 58.7219 43.8799 45.9005 72C40.7396 83.3189 41.754 94.0828 42 106z"/>
<path style="fill:#99cccc; stroke:none;" d="M125 41L125 42L129 42L125 41z"/>
<path style="fill:#669999; stroke:none;" d="M42 81L43 81C48.8825 62.952 61.8378 49.0942 80 43C75.3125 41.3782 69.9968 45.0688 66 47.4529C54.7516 54.1628 42.7136 67.2446 42 81z"/>
<path style="fill:#ffffff; stroke:none;" d="M140 45L143 42L140 45z"/>
<path style="fill:#669999; stroke:none;" d="M36 43L35 47L41 50L41 51L31 49L30 50L44 62L45 58L40 54L49 56C48.722 49.6111 41.2645 45.6218 36 43M114 43L114 44C130.044 51.6041 143.164 63.3178 148 81C149.667 76.2984 146.457 71.0817 144.127 67C137.91 56.1084 126.773 45.2769 114 43M155 44L153 46L153 47L155 48L155 49L144 59L145 60L158 52L159 55L162 53L162 52L155 44M96 47L96 48L103 48L96 47M92.6667 48.3333L93.3333 48.6667L92.6667 48.3333z"/>
<path style="fill:#006666; stroke:none;" d="M30 132L38 128C35.2195 134.453 23.0066 147.698 25.6466 154.852C27.6494 160.279 34.98 156.67 38 154.442C47.9049 147.136 57.9335 136.041 65 126C56.2692 124.238 43.7157 103.536 58.0046 101.603C67.1318 100.369 80.5468 106.428 88.956 102.802C95.2958 100.069 98.7393 82.1321 108 85.3272C112.585 86.909 115.96 92.567 119.075 96C125.733 103.338 133.114 109.843 139.961 117C143.505 120.705 148.555 128.902 154.852 126.381C161.993 123.522 154.332 110.962 152.255 107C142.951 89.2449 132.854 68.8924 117.996 55.0934C91.5415 30.5239 67.2697 71.2052 54.341 90C51.1341 94.6621 47.8821 99.2727 44.7716 104C39.1801 112.498 30.3147 121.363 30 132z"/>
<path style="fill:#cccccc; stroke:none;" d="M37 50L37 51L41 51L37 50z"/>
<path style="fill:#66cccc; stroke:none;" d="M80 56L81 57L80 56z"/>
<path style="fill:#669999; stroke:none;" d="M150 67L150 69L151 70L167 63L167 61C161.007 59.8425 155.069 64.0417 150 67M22 66L37 76L36 68L41 68C39.2058 61.8665 25.0216 60.5139 22 66z"/>
<path style="fill:#ffffff; stroke:none;" d="M29 66L29 67L33 69L29 66z"/>
<path style="fill:#669999; stroke:none;" d="M161.004 72.6566C149.962 76.0293 155.922 87.642 165.985 84.1458C176.084 80.6367 170.173 69.8561 161.004 72.6566z"/>
<path style="fill:#ffffff; stroke:none;" d="M158 81C162.54 80.9028 166.458 80.759 168 76C163.336 76.0422 159.556 76.0744 158 81z"/>
<path style="fill:#669999; stroke:none;" d="M32 82L30 87C34.1054 86.3149 37.4292 80.7168 31.8519 78.8472C28.5271 77.7327 24.3466 80.5811 21 81L23 77C19.1903 77.6616 16.0475 82.3306 21.1489 84.3812C24.6782 85.7998 28.7588 83.1505 32 82z"/>
<path style="fill:#99cccc; stroke:none;" d="M7 80L7 84L8 84L7 80M41 80L43 83L41 80z"/>
<path style="fill:#66cccc; stroke:none;" d="M149 80L148 83L149 80z"/>
<path style="fill:#99cccc; stroke:none;" d="M183 80L183 84L184 84L183 80z"/>
<path style="fill:#cccccc; stroke:none;" d="M11 81L11 85L12 85L11 81z"/>
<path style="fill:#99cccc; stroke:none;" d="M35 81L35 85L36 85L35 81M179 81L179 85L180 85L179 81z"/>
<path style="fill:#669999; stroke:none;" d="M41 82L41 86L42 86L41 82M149 82L149 86L150 86L149 82z"/>
<path style="fill:#99cccc; stroke:none;" d="M0 83L0 106L1 106C1.92326 98.6946 3.60984 89.7899 0 83M190 83L190 106L191 106L190 83M40 84L41 90L42 90L40 84M150 84L149 91L150 91L150 84z"/>
<path style="fill:#669999; stroke:none;" d="M40 87L40 102L41 102L40 87M150 87L150 104L151 104L150 87M0 88L0 101L1 101L0 88M190 88L190 101L191 101L190 88z"/>
<path style="fill:#cccccc; stroke:none;" d="M6 89L6 100L7 100L6 89z"/>
<path style="fill:#99cccc; stroke:none;" d="M10 90L10 99L11 99L10 90z"/>
<path style="fill:#cccccc; stroke:none;" d="M184 90L184 99L185 99L184 90z"/>
<path style="fill:#669999; stroke:none;" d="M17 95L17 100L34 102L31 99L31 95L34 95L34 91L17 95z"/>
<path style="fill:#66cccc; stroke:none;" d="M115 91L116 92L115 91M143 91L144 92L143 91z"/>
<path style="fill:#ccffff; stroke:none;" d="M151 91L151 99L152 99L151 91z"/>
<path style="fill:#669999; stroke:none;" d="M156 91L156 94L166 94L166 95C161.558 96.3019 158.392 97.312 157 102L174 102L174 99L165 99L165 98C169.039 97.0395 172.576 96.1579 174 92L156 91z"/>
<path style="fill:#99cccc; stroke:none;" d="M164 91L164 92L174 92L164 91M180 91L180 98L181 98L180 91M157 94L157 95L166 95L157 94z"/>
<path style="fill:#ffffff; stroke:none;" d="M22 97L22 98L28 96L22 97z"/>
<path style="fill:#99cccc; stroke:none;" d="M149 98L149 102L150 102L149 98M156 98L156 102L157 102L158 98L156 98M34 99L32 102L32 103C34.6489 102.432 35.3548 101.412 34 99M41 99L40 105L41 105L41 99z"/>
<path style="fill:#66cccc; stroke:none;" d="M123 100L124 101L123 100z"/>
<path style="fill:#ff9933; stroke:none;" d="M127 123L126 119C130.531 117.621 134.853 113.758 128.938 110.279C123.539 107.103 116.032 107.434 110 106.831C97.59 105.59 85.4683 103.507 73 102.961C68.099 102.746 60.8076 99.8951 56.1335 101.643C44.9683 105.817 55.7357 123.875 63 126.057C70.9537 128.446 79.9324 126.642 88 126.09C101.047 125.196 113.995 124.644 127 123z"/>
<path style="fill:#669999; stroke:none;" d="M1 102C1 119.553 8.52679 143.898 23 155L8.45293 129L1 102z"/>
<path style="fill:#996633; stroke:none;" d="M68 102L68 103L77 103L68 102z"/>
<path style="fill:#669999; stroke:none;" d="M189 102C187.925 115.6 183.529 129.289 176.547 141C173.046 146.873 167.831 151.82 165 158C177.95 151.065 184.178 131.182 187.909 118C189.39 112.768 191.208 107.262 189 102M41 103L41 109L44 107L41 103z"/>
<path style="fill:#996633; stroke:none;" d="M84 103L84 104L87 104L84 103z"/>
<path style="fill:#99cccc; stroke:none;" d="M11 104L11 108L12 108L11 104z"/>
<path style="fill:#999933; stroke:none;" d="M52.3333 104.667L52.6667 105.333L52.3333 104.667z"/>
<path style="fill:#ffcc99; stroke:none;" d="M92 104L92 105L95 105L92 104z"/>
<path style="fill:#99cccc; stroke:none;" d="M179 104L179 108L180 108L179 104M7 105L7 109L8 109L7 105z"/>
<path style="fill:#ffcc99; stroke:none;" d="M98 105L98 106L102 106L98 105z"/>
<path style="fill:#66cccc; stroke:none;" d="M128 105L129 106L128 105z"/>
<path style="fill:#cccccc; stroke:none;" d="M183 105L183 109L184 109L183 105z"/>
<path style="fill:#ffffff; stroke:none;" d="M0 106L0 189L83 189L83 188C52.6382 186.676 22.927 162.237 9.80864 136C5.01844 126.42 4.14656 115.592 0 106z"/>
<path style="fill:#ffcc99; stroke:none;" d="M107 106L107 107L112 107L107 106z"/>
<path style="fill:#ffffff; stroke:none;" d="M190 106C189.074 145.561 147.085 186.296 108 188L108 189L191 189L191 132L190 106z"/>
<path style="fill:#ffcc99; stroke:none;" d="M117 107L117 108L120 108L117 107z"/>
<path style="fill:#666633; stroke:none;" d="M52.3333 114.667L52.6667 115.333L52.3333 114.667z"/>
<path style="fill:#669999; stroke:none;" d="M156.333 117.667L156.667 118.333L156.333 117.667z"/>
<path style="fill:#ffcc99; stroke:none;" d="M123.667 123.333L124.333 123.667L123.667 123.333z"/>
<path style="fill:#ffcccc; stroke:none;" d="M113 124L113 125L118 125L113 124z"/>
<path style="fill:#ffcc99; stroke:none;" d="M101 125L101 126L105 126L101 125M84 126L84 127L92 127L84 126z"/>
<path style="fill:#669999; stroke:none;" d="M29 128L29 131L30 131L29 128M37.3333 128.667L37.6667 129.333L37.3333 128.667M61.1474 141.122C55.0533 144.124 57.6283 160.791 65.7724 155.968C71.5543 152.543 68.9665 137.271 61.1474 141.122M71 140L71 162L74 162C74 157.111 73.3141 152.61 77 149L77 148L74 140L71 140z"/>
<path style="fill:#66cccc; stroke:none;" d="M74 140L74 147L75 147L74 140z"/>
<path style="fill:#99cccc; stroke:none;" d="M83 140L83 145L84 145L84 141L87 141L87 145C88.1244 141.572 86.2202 140.535 83 140z"/>
<path style="fill:#669999; stroke:none;" d="M93 140L93 154L96 154L96 147L100 147L100 145L96 145L96 140L93 140z"/>
<path style="fill:#99cccc; stroke:none;" d="M96 140L96 145L97 145L96 140M104 143L104 142L102 142L102 141L111 141C107.514 138.991 97.4494 141.623 104 143z"/>
<path style="fill:#669999; stroke:none;" d="M112 140L112 152L111 152C109.064 146.879 108.759 145.647 111 141L102 141L102 142C105.026 146.063 102.527 149.697 101 154L107 150L112 154L112 162L115 162L115 148L117 148L117 163L120 163L120 140L117 140L117 146L115 146L115 140L112 140z"/>
<path style="fill:#cccccc; stroke:none;" d="M115 140L115 146L116 146L115 140z"/>
<path style="fill:#99cccc; stroke:none;" d="M124 140L124 141L134 141L124 140z"/>
<path style="fill:#ccffff; stroke:none;" d="M136 140L136 154L137 154L136 140z"/>
<path style="fill:#669999; stroke:none;" d="M137 140L137 155L140 155L143 146L140 145L140 140L137 140z"/>
<path style="fill:#99cccc; stroke:none;" d="M140 140L140 145L141 145L140 140z"/>
<path style="fill:#669999; stroke:none;" d="M84 141L79 152L85 149L86 149L92 152L92 150L87 141L84 141M124 141L124 151L135 151L135 149L128 149L128 142L134 142L124 141z"/>
<path style="fill:#99cccc; stroke:none;" d="M128 142L128 143L134 143L128 142z"/>
<path style="fill:#ffffff; stroke:none;" d="M62 143L63 155L64 155L64 143L62 143z"/>
<path style="fill:#99cccc; stroke:none;" d="M57 146L57 152L58 152L57 146M65 146L65 151L66 151L65 146M75 147L75 148C76.9601 148.653 77.554 149 75 149L75 150L78 147L75 147M96 147L93 154L93 155L97 155L96 147M140 147L140 154L141 154L140 147z"/>
<path style="fill:#cccccc; stroke:none;" d="M115 148L115 162L116 162L117 148L115 148z"/>
<path style="fill:#66cccc; stroke:none;" d="M74 150C74 154.386 75.0329 159.385 71 162L71 163L75 163L74 150z"/>
<path style="fill:#99cccc; stroke:none;" d="M125 151L125 152L135 152L125 151M24 153L23 157L24 157L24 153z"/>
<path style="fill:#669999; stroke:none;" d="M83 154L83 162L97 162L97 160L87 160L87 154L83 154z"/>
<path style="fill:#99cccc; stroke:none;" d="M126 154L126 162L127 162L126 154z"/>
<path style="fill:#669999; stroke:none;" d="M127 154L127 162L140 162L140 160L130 160L130 154L127 154M24 156C34.5143 176.266 66.4754 188 88 188L88 187C71.6709 185.711 56.5907 180.505 43 171.254C36.3844 166.751 30.9449 159.702 24 156z"/>
<path style="fill:#99cccc; stroke:none;" d="M27 158L27 159L31 159L27 158z"/>
<path style="fill:#66cccc; stroke:none;" d="M160 164L166 158L160 164z"/>
<path style="fill:#99cccc; stroke:none;" d="M87 159L87 160L97 160L87 159M130 159L130 160L140 160L130 159z"/>
<path style="fill:#669999; stroke:none;" d="M103 187L103 188C120.512 188 151.012 179.785 160 163C153.206 166.112 147.561 171.819 141 175.573C129.668 182.056 116.006 185.972 103 187z"/>
<path style="fill:#99cccc; stroke:none;" d="M81 177L81 178L85 178L81 177M106 177L106 178L110 178L106 177M90 178L90 179L101 179L90 178M81 181L81 182L85 182L81 181M106 181L106 182L110 182L106 181M90 182L90 183L101 183L90 182M83 188L83 189L108 189C100.34 185.319 91.1044 187.36 83 188z"/>
<path style="fill:#669999; stroke:none;" d="M89 188L89 189L102 189L89 188z"/>
</svg>
