<?xml version="1.0" standalone="yes"?>
<svg width="542" height="118">
<path style="fill:#000000; stroke:none;" d="M0 0L0 118L542 118L542 95L541 95C538.19 97.7289 535.351 98.1254 532 96L531 96L527 96L526 96L521 98C522.832 91.4838 524.777 87.9344 532 91L538 91L542 89L542 0L0 0z"/>
<path style="fill:#bbbdbf; stroke:none;" d="M49 7L10 116C29.0747 112.718 53.8758 103.023 71 94L65 88L53 92.054L23 103L31.706 77L50 28L55 39C62.2004 31.4432 57.606 12.6857 49 7z"/>
<path style="fill:#ff00ff; stroke:none;" d="M42 26L43 27L42 26z"/>
<path style="fill:#000000; stroke:none;" d="M50 28L51 29L50 28z"/>
<path style="fill:#e9222b; stroke:none;" d="M49 29L49 59L50 59L65 32C59.537 32.4153 57.2823 35.2205 55 40C53.5293 35.6568 53.85 30.6045 49 29z"/>
<path style="fill:#d07479; stroke:none;" d="M53 30L53 35L54 35L53 30z"/>
<path style="fill:#15204b; stroke:none;" d="M40 34C14.9081 24.855 7.02787 64.9389 7 83C6.99338 87.2912 6.19673 102.855 13.7909 101.824C18.7961 101.144 22.7307 83.2949 24.3187 79C26.5304 73.0181 28.5497 66.9624 30.8079 61C34.072 52.3814 38.4384 43.0752 40 34z"/>
<path style="fill:#000000; stroke:none;" d="M48 33L44 65L47 65L40 76L43 75C42.9761 83.3194 40.5214 87.2568 33 91L34 88L33 88L23 103L60 90L60 89C54.2132 84.6876 53.2498 80.1243 57 74L50 65L53 65L49 59L48 33z"/>
<path style="fill:#ee6a26; stroke:none;" d="M65 33L51 60C64.1538 55.1842 85.7666 43.7742 65 33z"/>
<path style="fill:#000000; stroke:none;" d="M64 34L65 35L64 34z"/>
<path style="fill:#cbebf4; stroke:none;" d="M290 55L325 61C325 53.3725 325.419 40.8893 318.66 35.6034C306.909 26.4134 292.924 45.7623 290 55M361 57C357.976 46.5035 343.388 24.5982 330.214 36.3179C326.502 39.6199 322.321 55.5371 328.318 58.3927C331.668 59.9879 336.583 57.9714 340 57.439C346.84 56.3733 354.091 57 361 57z"/>
<path style="fill:#f78d71; stroke:none;" d="M418 44L422 43C421.162 40.4903 421.554 36.0299 424 40L428 35C421.066 33.7089 416.357 36.8015 418 44z"/>
<path style="fill:#ee563d; stroke:none;" d="M426 34L426 35L428 38L434 35L426 34z"/>
<path style="fill:#e9222b; stroke:none;" d="M47 35C43.5355 42.7791 39.0141 53.1139 48 59L47 35z"/>
<path style="fill:#14336a; stroke:none;" d="M409 64L404 57C401.04 58.5489 397.525 61.1652 394.005 60.1528C387.292 58.2224 386.021 49.7089 391.144 45.4375C396.138 41.2741 403.743 49.2765 406.762 42.9298C411.228 33.5425 391.261 34.5902 387.039 36.9198C375.987 43.0181 374.858 60.0812 386.015 66.7716C393.709 71.3848 402.178 68.4947 409 64z"/>
<path style="fill:#ff00ff; stroke:none;" d="M420 35L421 36L420 35z"/>
<path style="fill:#14336a; stroke:none;" d="M448 35L448 69C456.574 68.9697 456.999 65.9462 457 58C465.691 60.6727 465.278 68.9917 476 69C475.272 65.3399 471.664 61.6209 471.838 58C472.133 51.8838 477.717 48.7672 474.427 42.0154C469.834 32.5924 456.587 35 448 35M479 69C488.77 69 502.42 71.4597 511.779 68.679C516.434 67.2962 516.182 61.4685 522.003 61.0633C531.047 60.4337 530.85 70.9926 541 68C537.865 59.9193 534.469 51.8275 530.745 44C529.514 41.4129 528.365 36.9392 525.582 35.6042C516.094 31.0524 507.79 59.4545 506 66L505 66L504 60L488 61L488 56C495.896 56 502.884 57.7806 503 48L488 48L488 43L505 43C504.884 33.2187 497.918 34.9995 490 35C487.197 35.0002 482.025 34.0819 480.028 36.6034C475.532 42.2796 479 61.8043 479 69z"/>
<path style="fill:#000000; stroke:none;" d="M63 36L64 37L63 36z"/>
<path style="fill:#ff0000; stroke:none;" d="M418 36L419 37L418 36z"/>
<path style="fill:#ef1b22; stroke:none;" d="M432 39L443 48C444.496 42.5276 436.655 32.7626 432 39z"/>
<path style="fill:#b9c1c3; stroke:none;" d="M62 37L58 46L59 46L62 37z"/>
<path style="fill:#ff00ff; stroke:none;" d="M320 37L321 38L320 37z"/>
<path style="fill:#fcad92; stroke:none;" d="M421 42L423 42L424 37C420.964 38.0004 420.506 38.8628 421 42z"/>
<path style="fill:#000000; stroke:none;" d="M54.3333 38.6667L54.6667 39.3333L54.3333 38.6667z"/>
<path style="fill:#001d4d; stroke:none;" d="M187 49L187 48L201 49L204 42C195.525 38.7362 171.179 37.0621 180.179 53.956C182.706 58.6996 193.463 58.7325 194.369 63.1289C194.947 65.9361 171.146 61.515 180.337 70.1458C188.568 77.8743 209.838 72.9882 204.257 59.0432C201.788 52.8744 192.358 51.7081 187 49z"/>
<path style="fill:#f3684b; stroke:none;" d="M416 38C412.776 42.851 414.44 46.4006 420 48L421 44L416 38z"/>
<path style="fill:#ac5151; stroke:none;" d="M427 38L427 39L432 39L427 38z"/>
<path style="fill:#001d4d; stroke:none;" d="M98 39L98 73L106 73L106 63C110.231 63 115.085 63.5975 118.957 61.5432C125.997 57.8075 127.105 46.8191 120.786 41.8542C114.89 37.2216 105.013 39 98 39M129 39L129 73L138 73L138 63L149.326 71.9722L159 73L151 61C159.124 57.0956 160.735 45.0088 151.981 40.4568C145.733 37.2077 135.863 39 129 39M164 39L164 73L173 73L173 39L164 39M210 39L210 73L219 73L219 54L220 54L227 66L228 66L235 54L236 54L236 73L245 73L245 39C235.085 39.0011 231.913 42.9316 228 52C222.021 43.77 220.875 39.0012 210 39z"/>
<path style="fill:#14336a; stroke:none;" d="M422 51C423.567 48.6904 424.64 45.751 426.789 43.8935C430.872 40.3656 438.514 42.6491 439.667 48.0502C441.011 54.3489 431.814 63.6508 426 64.4228C420.602 65.1395 416.744 60.6406 412 59C418.336 75.0076 447.033 70.2693 444.63 52C442.706 37.3621 417.013 33.9261 422 51z"/>
<path style="fill:#0000ff; stroke:none;" d="M382 40L383 41L382 40z"/>
<path style="fill:#ff00ff; stroke:none;" d="M407 42L408 43L407 42z"/>
<path style="fill:#414f7e; stroke:none;" d="M426 53C426.724 39.7801 440.506 44.1144 436 56C437.737 54.8128 439.118 53.9844 439.686 51.8117C444.355 33.9533 414.448 45.4168 426 53z"/>
<path style="fill:#ef4833; stroke:none;" d="M412 43L411 49L421 51L414 43L412 43z"/>
<path style="fill:#5c638e; stroke:none;" d="M427 46C432.454 46.2995 434.566 48.225 437 53C441.444 46.7549 432.073 40.8846 427 46z"/>
<path style="fill:#d45d6e; stroke:none;" d="M57.3333 44.6667L57.6667 45.3333L57.3333 44.6667z"/>
<path style="fill:#000000; stroke:none;" d="M457 44L457 51C468.028 50.9611 468.204 44.0087 457 44z"/>
<path style="fill:#87505b; stroke:none;" d="M420 45L420 49L421 49L420 45z"/>
<path style="fill:#000000; stroke:none;" d="M57 46L58 47L57 46M75 46L76 47L75 46z"/>
<path style="fill:#fbdf01; stroke:none;" d="M52 62L84 62L78 46C70.7989 48.2795 55.9506 55.5407 52 62z"/>
<path style="fill:#0000ff; stroke:none;" d="M402 46L403 47L402 46z"/>
<path style="fill:#000000; stroke:none;" d="M416 61C422.594 66.7657 433.645 65.4841 436.017 56C437.102 51.6631 434.643 45.3027 429.147 46.3765C423.89 47.4038 427.768 53.7269 426.998 56.8951C425.785 61.8948 419.875 61.3986 416 61z"/>
<path style="fill:#787e90; stroke:none;" d="M35.3333 47.6667L35.6667 48.3333L35.3333 47.6667z"/>
<path style="fill:#000000; stroke:none;" d="M73 47L74 48L73 47M106 47L106 56C116.196 53.5643 118.496 47.0441 106 47M138 47L138 55C150.508 54.9903 150.674 47.0084 138 47z"/>
<path style="fill:#ed1c24; stroke:none;" d="M410 47C410.059 53.9762 412.32 61.8755 420.996 61.6011C424.784 61.4813 429.737 57.5935 426.381 53.7323C422.897 49.7232 414.722 49.8832 410 47z"/>
<path style="fill:#ffffff; stroke:none;" d="M434 47L435 48L434 47z"/>
<path style="fill:#000000; stroke:none;" d="M522 47L520 54L526 54L522 47M56 48L57 49L56 48M71.6667 48.3333L72.3333 48.6667L71.6667 48.3333z"/>
<path style="fill:#ff1610; stroke:none;" d="M444 48L444 51L445 51L444 48z"/>
<path style="fill:#000000; stroke:none;" d="M55 49L56 50L55 49M70 49L71 50L70 49z"/>
<path style="fill:#ffff00; stroke:none;" d="M55 50L56 51L55 50z"/>
<path style="fill:#ce9179; stroke:none;" d="M66.6667 50.3333L67.3333 50.6667L66.6667 50.3333z"/>
<path style="fill:#000000; stroke:none;" d="M68 50L69 51L68 50M42 51L43 52L42 51M54 51L55 52L54 51z"/>
<path style="fill:#babcc2; stroke:none;" d="M61 55L68 52L61 55z"/>
<path style="fill:#ee6924; stroke:none;" d="M41 52C39.9838 56.516 41.8677 58.3452 46 60L43 52L41 52z"/>
<path style="fill:#000000; stroke:none;" d="M43 53L44 54L43 53M53 53L54 54L53 53z"/>
<path style="fill:#0000ff; stroke:none;" d="M387 53L388 54L387 53z"/>
<path style="fill:#7dc9e7; stroke:none;" d="M283 72L301 71.4753L324 62C315.775 57.7725 298.64 48.6361 289.649 55.9383C285.574 59.2476 284.365 67.1917 283 72z"/>
<path style="fill:#000000; stroke:none;" d="M44 55L45 56L44 55M52 55L53 56L52 55M59.6667 55.3333L60.3333 55.6667L59.6667 55.3333M51 56L52 57L51 56M58 56L59 57L58 56M40 57L41 58L40 57z"/>
<path style="fill:#ffff00; stroke:none;" d="M45 57L46 58L45 57z"/>
<path style="fill:#000000; stroke:none;" d="M56 57L57 58L56 57z"/>
<path style="fill:#47a1ce; stroke:none;" d="M327 59L334 72L367 77L362 57L327 59z"/>
<path style="fill:#88c3e0; stroke:none;" d="M357 57L357 58L361 58L357 57z"/>
<path style="fill:#0000ff; stroke:none;" d="M404 57L405 58L404 57z"/>
<path style="fill:#fcdf01; stroke:none;" d="M38 58L38 62L45 62L38 58z"/>
<path style="fill:#000000; stroke:none;" d="M42 58L43 59L42 58M54 58L55 59L54 58z"/>
<path style="fill:#007f00; stroke:none;" d="M458.667 58.3333L459.333 58.6667L458.667 58.3333z"/>
<path style="fill:#000000; stroke:none;" d="M43 59L44 60L43 59M53 59L54 60L53 59z"/>
<path style="fill:#007f7f; stroke:none;" d="M489 60L489 61L503 61L489 60z"/>
<path style="fill:#b4bcbe; stroke:none;" d="M64 61L64 63L72 63L72 61L64 61z"/>
<path style="fill:#47a1ce; stroke:none;" d="M302 71C306.586 73.7513 329.427 81.2529 331.169 72.9414C332.005 68.951 327.074 64.0495 325 61L302 71z"/>
<path style="fill:#ff0000; stroke:none;" d="M472 61L473 62L472 61z"/>
<path style="fill:#7f7f7f; stroke:none;" d="M518 61L518 62L528 62L518 61z"/>
<path style="fill:#006699; stroke:none;" d="M38 62L38 63L45 63L38 62M52 62L52 63L64 63L52 62M72 62L72 63L83 63L72 62z"/>
<path style="fill:#3ab14b; stroke:none;" d="M52 63L52 64L87 84L84 62L52 63z"/>
<path style="fill:#3ab24b; stroke:none;" d="M35 69L45 64C39.9612 61.8908 36.1106 63.6743 35 69z"/>
<path style="fill:#38a5dd; stroke:none;" d="M45 64C33.2124 71.7751 29.7136 79.3951 26 93C33.3294 91.0451 47.0327 71.6534 45 64M51 64C53.6604 75.3215 64.76 86.3029 72.0802 94.9992C74.4117 97.769 78.2807 103.507 82.6065 100.953C86.8546 98.4444 88.9669 87.6125 85.3966 83.9691C77.7856 76.2023 60.9924 68.6653 51 64z"/>
<path style="fill:#0000ff; stroke:none;" d="M422 64L423 65L422 64M539 64L540 65L539 64z"/>
<path style="fill:#000000; stroke:none;" d="M42 65L43 66L42 65z"/>
<path style="fill:#0000ff; stroke:none;" d="M46 65L47 66L46 65M50 65L51 66L50 65z"/>
<path style="fill:#000000; stroke:none;" d="M54 65L55 66L54 65M40.6667 66.3333L41.3333 66.6667L40.6667 66.3333M55.6667 66.3333L56.3333 66.6667L55.6667 66.3333z"/>
<path style="fill:#0000ff; stroke:none;" d="M204 66L205 67L204 66z"/>
<path style="fill:#000000; stroke:none;" d="M38.6667 67.3333L39.3333 67.6667L38.6667 67.3333M57 67L58 68L57 67M37 68L38 69L37 68M59 68L60 69L59 68M35 69L36 70L35 69M61 69L62 70L61 69M62.6667 70.3333L63.3333 70.6667L62.6667 70.3333M64 71L65 72L64 71z"/>
<path style="fill:#4fb1db; stroke:none;" d="M286 71L286 72L296 72L286 71z"/>
<path style="fill:#26598d; stroke:none;" d="M337 71L337 72L348 72L337 71z"/>
<path style="fill:#000000; stroke:none;" d="M66 72L67 73L66 72z"/>
<path style="fill:#007fbf; stroke:none;" d="M283 72L282 99L310 87.6883L328 78C314.157 71.7834 297.848 72 283 72z"/>
<path style="fill:#14336a; stroke:none;" d="M330 81L328 78L309 87.6883L282 99L282 100C292.534 100 310.165 103.432 319.891 99.3966C325.055 97.254 326.873 87.5134 325 83L327.029 98.3966L338 100L369 100L368 77C358.547 75.3724 330.582 63.1989 330 81z"/>
<path style="fill:#000000; stroke:none;" d="M67 73L68 74L67 73z"/>
<path style="fill:#bfbebf; stroke:none;" d="M68 73L80 81L68 73z"/>
<path style="fill:#804096; stroke:none;" d="M41 75L33 91C41.4184 88.0562 42.9944 83.4134 43 75L41 75z"/>
<path style="fill:#7f4095; stroke:none;" d="M55 75C53.461 83.3195 55.6542 89.4883 65 90C63.7039 84.4845 59.9019 77.974 55 75z"/>
<path style="fill:#000000; stroke:none;" d="M57 76L58 77L57 76M329 76L328 81L330 81L329 76z"/>
<path style="fill:#13326a; stroke:none;" d="M381 77L383 85L386 85L386 79L387 79L387 85L390 82L391 82L391 85C393.634 85.191 401.902 83.0157 396.41 79.3681C392.475 76.7542 385.521 76.9226 381 77z"/>
<path style="fill:#0000ff; stroke:none;" d="M413.667 76.3333L414.333 76.6667L413.667 76.3333z"/>
<path style="fill:#133269; stroke:none;" d="M432 85L443 85L445 78L436 79L435 76L432 85z"/>
<path style="fill:#133169; stroke:none;" d="M463 76L463 81L462 81L461 78L458 80L457 80L447 77L447 85L449 83L450 83L471 88L473 88L476 78L475 78L474 81L473 81L472 78L470 79L463 76z"/>
<path style="fill:#143269; stroke:none;" d="M492 79L489 80L488 80L482 80C479.184 77.2633 477.823 81.5143 477 84L495 85L494 76L492 79z"/>
<path style="fill:#133169; stroke:none;" d="M513 76L512 80L497 77L497 85L502 83L503 83C508.566 89.0294 529.98 84.9042 538 85C537.467 78.0129 531.657 77.4274 526 80L525 77L523 79L521 77L518 83L517 83L517 79L513 76z"/>
<path style="fill:#000000; stroke:none;" d="M39 77L40 78L39 77M58 77L59 78L58 77z"/>
<path style="fill:#133169; stroke:none;" d="M426 85L426 81L427 81L430 86C431.186 80.9867 428.238 74.709 424 81C419.39 77.1259 410.915 76.7891 405.012 77.2006C402.147 77.4003 398.338 79.1718 400.137 82.7616C402.823 88.1231 420.784 84.8423 426 85z"/>
<path style="fill:#000000; stroke:none;" d="M59.3333 78.6667L59.6667 79.3333L59.3333 78.6667z"/>
<path style="fill:#0000ff; stroke:none;" d="M394 78L395 79L394 78M396 78L397 79L396 78M425 78L426 79L425 78M458 78L459 79L458 78z"/>
<path style="fill:#00ff00; stroke:none;" d="M485 78L486 79L485 78z"/>
<path style="fill:#000000; stroke:none;" d="M38 79L39 80L38 79M403 79L402 83L403 79M408 79L410 83L408 79z"/>
<path style="fill:#0000ff; stroke:none;" d="M482 79L483 80L482 79z"/>
<path style="fill:#000000; stroke:none;" d="M60 80L61 81L60 80M80 80L81 81L80 80z"/>
<path style="fill:#0000ff; stroke:none;" d="M473 80L474 81L473 80z"/>
<path style="fill:#000000; stroke:none;" d="M37 81L38 82L37 81M61.3333 81.6667L61.6667 82.3333L61.3333 81.6667M81.6667 81.3333L82.3333 81.6667L81.6667 81.3333z"/>
<path style="fill:#001b4b; stroke:none;" d="M98 81L98 88L100 86L101 86L102 86C103.063 88.7639 103.74 87.2109 104 85C111.045 89.9072 122.658 87.6538 131 88L131 82L122 83L116 83L98 81M134 81L134 88C138.202 87.8564 149.077 89.6902 150 85L153 88L155 86L156 86C158.608 87.9622 161.723 88.6629 164 86L165 86L179 88C178.549 82.2134 175.131 81.547 170 83C168.324 80.7169 142.749 80.7991 141 83L134 81z"/>
<path style="fill:#001b4a; stroke:none;" d="M181 81L181 88L188 88C187.625 83.1714 185.678 81.7519 181 81z"/>
<path style="fill:#001b4b; stroke:none;" d="M190 82L190 87L198 88L199 84L200 84L201 88L203 86L204 86C206.338 88.2743 209.279 88.6595 210 85L211 85L212 88L214 88L214 82L195 83L190 82z"/>
<path style="fill:#001b4a; stroke:none;" d="M219 81L218 88L220 86L221 86L245 88C244.297 78.9731 227.929 80.371 222 84L219 81z"/>
<path style="fill:#000000; stroke:none;" d="M420.333 81.6667L420.667 82.3333L420.333 81.6667M437.333 81.6667L437.667 82.3333L437.333 81.6667M470 81L471 85L472 85L470 81M491.333 81.6667L491.667 82.3333L491.333 81.6667M523.333 81.6667L523.667 82.3333L523.333 81.6667M529.333 81.6667L529.667 82.3333L529.333 81.6667M36 82L37 83L36 82M83 82L84 83L83 82z"/>
<path style="fill:#ffffff; stroke:none;" d="M390 82L391 83L390 82z"/>
<path style="fill:#000000; stroke:none;" d="M499 82L499 83L502 83L499 82M62 83L63 84L62 83M85 83L86 84L85 83z"/>
<path style="fill:#ff00ff; stroke:none;" d="M390 83L391 84L390 83z"/>
<path style="fill:#000000; stroke:none;" d="M35 84L36 85L35 84M63.3333 84.6667L63.6667 85.3333L63.3333 84.6667z"/>
<path style="fill:#007fff; stroke:none;" d="M479.667 85.3333L480.333 85.6667L479.667 85.3333z"/>
<path style="fill:#0000ff; stroke:none;" d="M522.667 85.3333L523.333 85.6667L522.667 85.3333M529 85L530 86L529 85z"/>
<path style="fill:#000000; stroke:none;" d="M34 86L35 87L34 86M64 86L65 87L64 86M65 87L66 88L65 87z"/>
<path style="fill:#133269; stroke:none;" d="M502 87L501 91C496.592 90.3259 495.503 93.2359 494 97C502.333 99.1471 518.432 100.936 519 90L510 92L502 87z"/>
<path style="fill:#123169; stroke:none;" d="M387 92C379.081 90.8429 382.162 97.5567 389 98L391 89L387 92z"/>
<path style="fill:#133269; stroke:none;" d="M415 98L415 91L414 90L411 91C408.308 87.3161 406.301 92.2668 406 95C403.665 90.053 391.56 87.6383 392.466 94.9105C393.121 100.166 410.83 97.7447 415 98M419 89L416 98L420 96L432 98L432 94L433 94L434 98L438 98L438 94L439 94L439 98L441 98L441 94L442 94L442 98L449 98L449 91L436 93L435 93L430 89L423 94L422 94L421 89L419 89z"/>
<path style="fill:#133268; stroke:none;" d="M451 89L451 98L460 98C461.549 91.6457 456.603 89.742 451 89z"/>
<path style="fill:#123269; stroke:none;" d="M463 89L463 98L477 98L477 94L478 94C479.625 98.8966 484.543 97.8962 489 98C488.689 88.5424 470.999 89.6977 463 89z"/>
<path style="fill:#123169; stroke:none;" d="M521 98L526 96L527 96C528.556 97.8129 529.444 97.8129 531 96L532 96C537.374 102.166 541.874 94.2247 542 89L538 91L537 91L533 91C525.277 87.0517 522.32 90.5475 521 98z"/>
<path style="fill:#0000ff; stroke:none;" d="M533 89L534 90L533 89M536 89L537 90L536 89z"/>
<path style="fill:#ffff00; stroke:none;" d="M114 90L115 91L114 90z"/>
<path style="fill:#ec6824; stroke:none;" d="M115 90L114 97L151 97L150 90L143 90L143 95L142 95L142 90L140 93L119 93L120 90L115 90z"/>
<path style="fill:#ff0000; stroke:none;" d="M150.333 90.6667L150.667 91.3333L150.333 90.6667z"/>
<path style="fill:#ed6823; stroke:none;" d="M165 97L165 90L158 93L157 90C147.017 95.5186 160.851 96.6665 165 97z"/>
<path style="fill:#ec6825; stroke:none;" d="M166 90L166 97L172 95L173 95C176.028 98.4464 193.066 98.3576 196 95L197 95L200 95L204 97L205 93L193 92L173 90L173 94L172 94L166 90z"/>
<path style="fill:#ed6723; stroke:none;" d="M228 98L229 92C225.59 91.2505 203.556 89.239 208.032 95.3765C210.35 98.5536 224.136 97.5117 228 98z"/>
<path style="fill:#808696; stroke:none;" d="M19.3333 91.6667L19.6667 92.3333L19.3333 91.6667z"/>
<path style="fill:#00ff00; stroke:none;" d="M382 91L383 92L382 91z"/>
<path style="fill:#0000ff; stroke:none;" d="M390 91L391 92L390 91M444 91L445 92L444 91z"/>
<path style="fill:#000000; stroke:none;" d="M529.333 92.6667L529.667 93.3333L529.333 92.6667M534 92L534 95L535 95L534 92M118 93L119 94L118 93M155 95L158 94L155 95M512 93L511 95L513 95L512 93z"/>
<path style="fill:#ffff00; stroke:none;" d="M70 94L71 95L70 94z"/>
<path style="fill:#000000; stroke:none;" d="M121 94L122 95L121 94z"/>
<path style="fill:#ffff00; stroke:none;" d="M156 94L157 95L156 94z"/>
<path style="fill:#000000; stroke:none;" d="M160 94L161 95L160 94M179 94L180 95L179 94M192 94L193 95L192 94M214 94L215 95L214 94M384.333 94.6667L384.667 95.3333L384.333 94.6667M438.333 94.6667L438.667 95.3333L438.333 94.6667M537.667 94.3333L538.333 94.6667L537.667 94.3333z"/>
<path style="fill:#ffff00; stroke:none;" d="M136 95L137 96L136 95M196 95L197 96L196 95z"/>
<path style="fill:#000000; stroke:none;" d="M225 95L226 96L225 95z"/>
<path style="fill:#ffff00; stroke:none;" d="M207 96L208 97L207 96z"/>
<path style="fill:#0000ff; stroke:none;" d="M438 96L439 97L438 96M387 97L388 98L387 97M392 97L393 98L392 97M403 97L404 98L403 97M427 97L428 98L427 97M483 97L484 98L483 97M498.667 97.3333L499.333 97.6667L498.667 97.3333M508 97L509 98L508 97M326 99L327 100L326 99z"/>
</svg>
